<svg width="40" height="40" viewBox="0 0 40 40" fill="none" xmlns="http://www.w3.org/2000/svg">
<circle opacity="0.1" cx="20" cy="20" r="20" fill="#C4C4C4"/>
<path d="M26.1693 16.6317L25.9462 16.7901L25.9593 17.0634C26.1695 21.4279 22.8305 25.6875 17.7175 25.6875C16.7613 25.6875 15.8469 25.5273 14.9966 25.2304C16.0622 25.0269 17.0392 24.5713 17.8567 23.932L18.9606 23.0689L17.5597 23.0382C16.7136 23.0197 15.965 22.5897 15.5041 21.9407C15.7404 21.9262 15.973 21.8902 16.196 21.8291L16.164 20.857C15.2333 20.6665 14.4786 19.9699 14.2077 19.0643C14.4568 19.1277 14.7163 19.1649 14.9799 19.1699L16.6853 19.2023L15.2672 18.2543C14.5817 17.7961 14.1231 17.0051 14.1231 16.1144C14.1231 15.8983 14.1502 15.6888 14.2012 15.4877C15.7802 17.113 17.9453 18.1583 20.3587 18.2763L21.0164 18.3084L20.8707 17.6662C20.8302 17.4878 20.8119 17.2919 20.8119 17.0756C20.8119 15.6566 21.9601 14.5 23.385 14.5C24.1195 14.5 24.7935 14.8112 25.2667 15.3153L25.4569 15.5179L25.7294 15.4634C25.8837 15.4325 26.0362 15.3966 26.1867 15.3558C26.1177 15.4068 26.046 15.4545 25.9718 15.4988L26.2911 16.4241C26.3523 16.4164 26.4132 16.4078 26.4739 16.3986C26.3753 16.4797 26.2738 16.5575 26.1693 16.6317Z" stroke="white"/>
</svg>
