<svg width="40" height="40" viewBox="0 0 40 40" fill="none" xmlns="http://www.w3.org/2000/svg">
<circle opacity="0.1" cx="20" cy="20" r="20" fill="#C4C4C4"/>
<path d="M23.9396 13H17.0604C14.8214 13 13 14.8214 13 17.0604V23.9398C13 26.1786 14.8214 28 17.0604 28H23.9398C26.1786 28 28 26.1786 28 23.9398V17.0604C28 14.8214 26.1786 13 23.9396 13V13ZM27.1206 23.9398C27.1206 25.6937 25.6937 27.1206 23.9396 27.1206H17.0604C15.3063 27.1206 13.8794 25.6937 13.8794 23.9398V17.0604C13.8794 15.3063 15.3063 13.8794 17.0604 13.8794H23.9398C25.6937 13.8794 27.1206 15.3063 27.1206 17.0604V23.9398Z" fill="white"/>
<path d="M20.4999 16.3984C18.2383 16.3984 16.3984 18.2383 16.3984 20.4999C16.3984 22.7615 18.2383 24.6013 20.4999 24.6013C22.7615 24.6013 24.6013 22.7615 24.6013 20.4999C24.6013 18.2383 22.7615 16.3984 20.4999 16.3984ZM20.4999 23.722C18.7233 23.722 17.2778 22.2766 17.2778 20.4999C17.2778 18.7233 18.7233 17.2778 20.4999 17.2778C22.2766 17.2778 23.722 18.7233 23.722 20.4999C23.722 22.2766 22.2766 23.722 20.4999 23.722Z" fill="white"/>
<path d="M24.6995 14.9419C24.0312 14.9419 23.4876 15.4856 23.4876 16.1538C23.4876 16.8222 24.0312 17.3659 24.6995 17.3659C25.3678 17.3659 25.9116 16.8222 25.9116 16.1538C25.9116 15.4855 25.3678 14.9419 24.6995 14.9419ZM24.6995 16.4864C24.5162 16.4864 24.3669 16.3372 24.3669 16.1538C24.3669 15.9704 24.5162 15.8213 24.6995 15.8213C24.883 15.8213 25.0322 15.9704 25.0322 16.1538C25.0322 16.3372 24.883 16.4864 24.6995 16.4864Z" fill="white"/>
</svg>
